<svg xmlns="http://www.w3.org/2000/svg" viewBox="0 0 24 24" fill="none">
  <path d="M11.998 24c-.321 0-.641-.082-.924-.244l-2.938-1.74c-.44-.245-.225-.332-.08-.382.586-.204.705-.25 1.33-.605.066-.037.152-.023.219.015l2.256 1.339a.29.29 0 0 0 .273 0l8.795-5.076a.277.277 0 0 0 .134-.238V6.921a.283.283 0 0 0-.136-.242l-8.791-5.072a.27.27 0 0 0-.271 0L3.075 6.68a.284.284 0 0 0-.139.241v10.15c0 .098.053.19.137.237l2.408 1.391c1.308.654 2.107-.116 2.107-.891V7.787c0-.142.114-.253.256-.253h1.115c.139 0 .255.111.255.253v10.021c0 1.745-.95 2.745-2.604 2.745-.508 0-.909 0-2.026-.55l-2.304-1.325a1.86 1.86 0 0 1-.921-1.606V6.921c0-.66.352-1.277.921-1.607l8.795-5.082c.557-.315 1.296-.315 1.848 0l8.794 5.082c.569.33.922.946.922 1.607v10.15c0 .66-.353 1.273-.922 1.603l-8.794 5.078c-.282.164-.603.246-.924.246zm2.716-6.993c-3.848 0-4.654-1.766-4.654-3.248 0-.142.113-.253.255-.253h1.14c.127 0 .232.092.253.217.17 1.158.683 1.742 3.006 1.742 1.853 0 2.639-.419 2.639-1.401 0-.566-.225-.986-3.1-1.27-2.403-.237-3.886-.768-3.886-2.694 0-1.775 1.497-2.831 4.004-2.831 2.815 0 4.211.977 4.387 3.077a.257.257 0 0 1-.255.28h-1.143c-.118 0-.221-.083-.246-.197-.275-1.217-.94-1.607-2.743-1.607-2.023 0-2.259.705-2.259 1.233 0 .64.277.828 3.006 1.189 2.7.359 3.978.865 3.978 2.765 0 1.915-1.599 3.014-4.382 3.014z" fill="#339933"/>
</svg> 