<svg xmlns="http://www.w3.org/2000/svg" viewBox="0 0 24 24" fill="none">
  <path d="M12 5.5c-6.627 0-12 2.686-12 6 0 3.314 5.373 6 12 6 6.627 0 12-2.686 12-6 0-3.314-5.373-6-12-6zm-1.168 9.423c-.345.187-.773.187-1.118 0l-3.714-2.015a1.158 1.158 0 0 1-.559-.995V8.038c0-.41.222-.79.559-.995l3.714-2.015c.345-.187.773-.187 1.118 0l3.714 2.015c.337.205.559.584.559.995v3.875c0 .41-.222.79-.559.995l-3.714 2.015zM20.314 13l-1.143-1.142 1.143-1.143.571.572-1.143 1.142 1.143 1.143-.571.571zm-2.285 0l-1.143-1.142 1.143-1.143.571.572-1.143 1.142 1.143 1.143-.571.571zm-2.286 0l-1.143-1.142 1.143-1.143.572.572-1.143 1.142 1.143 1.143-.572.571z" fill="#777BB4"/>
</svg> 