<svg xmlns="http://www.w3.org/2000/svg" viewBox="0 0 24 24" fill="none">
  <path d="M11.95 0C5.857 0 6.23 2.637 6.23 2.637l.007 2.731h5.832v.824H3.886S0 5.851 0 11.969c0 6.118 3.396 5.901 3.396 5.901h2.027v-2.837s-.109-3.396 3.396-3.396h5.832s3.278.053 3.278-3.169V3.17S18.369 0 11.95 0zM8.73 1.825c.58 0 1.051.471 1.051 1.051 0 .581-.471 1.052-1.051 1.052-.581 0-1.052-.471-1.052-1.052 0-.58.471-1.051 1.052-1.051z" fill="#3776AB"/>
  <path d="M12.05 24c6.093 0 5.72-2.637 5.72-2.637l-.007-2.731h-5.832v-.824h8.183S24 18.149 24 12.031c0-6.118-3.396-5.901-3.396-5.901h-2.027v2.837s.109 3.396-3.396 3.396h-5.832S6.071 12.31 6.071 15.532v5.298S5.631 24 12.05 24zm3.22-1.825c-.58 0-1.051-.471-1.051-1.051 0-.581.471-1.052 1.051-1.052.581 0 1.052.471 1.052 1.052 0 .58-.471 1.051-1.052 1.051z" fill="#3776AB"/>
</svg> 