<svg xmlns="http://www.w3.org/2000/svg" viewBox="0 0 24 24" fill="none">
  <path d="M12 13.5a1.5 1.5 0 1 1 0-3 1.5 1.5 0 0 1 0 3Z" fill="#61DAFB"/>
  <path d="M12 21.75c-1.964 0-3.798-.265-5.25-.765a12.34 12.34 0 0 1-3.375-1.76 8.036 8.036 0 0 1-2.025-2.235c-.45-.78-.6-1.515-.6-2.115 0-.6.15-1.335.6-2.115a8.033 8.033 0 0 1 2.025-2.235 12.332 12.332 0 0 1 3.375-1.76C8.202 8.265 10.036 8 12 8s3.798.265 5.25.765a12.34 12.34 0 0 1 3.375 1.76 8.036 8.036 0 0 1 2.025 2.235c.45.78.6 1.515.6 2.115 0 .6-.15 1.335-.6 2.115a8.033 8.033 0 0 1-2.025 2.235 12.332 12.332 0 0 1-3.375 1.76c-1.452.5-3.286.765-5.25.765Z" stroke="#61DAFB" stroke-width="1.5"/>
  <path d="M19.5 12.75c-1 1.733-2.333 3.267-4 4.5-1.667 1.233-3.4 2.067-5.2 2.5-1.8.433-3.583.433-5.35 0-1.767-.433-3.317-1.267-4.65-2.5" stroke="#61DAFB" stroke-width="1.5"/>
  <path d="M4.5 12.75c1-1.733 2.333-3.267 4-4.5 1.667-1.233 3.4-2.067 5.2-2.5 1.8-.433 3.583-.433 5.35 0 1.767.433 3.317 1.267 4.65 2.5" stroke="#61DAFB" stroke-width="1.5"/>
</svg> 