<svg xmlns="http://www.w3.org/2000/svg" viewBox="0 0 24 24" fill="none">
  <path d="M1.125 0C.502 0 0 .502 0 1.125v21.75C0 23.498.502 24 1.125 24h21.75c.623 0 1.125-.502 1.125-1.125V1.125C24 .502 23.498 0 22.875 0H1.125zM17.363 9.75c.612 0 1.154.037 1.627.111a6.38 6.38 0 0 1 1.306.34v2.458a3.95 3.95 0 0 0-.643-.361 5.093 5.093 0 0 0-.717-.26 5.453 5.453 0 0 0-1.426-.2c-.3 0-.573.028-.819.086a2.1 2.1 0 0 0-.623.242c-.17.104-.3.229-.393.374-.093.145-.139.304-.139.476 0 .175.039.329.117.461.078.132.193.25.345.352.152.102.336.196.552.282.216.086.46.173.732.26.886.319 1.533.724 1.942 1.215.41.491.614 1.101.614 1.83 0 .549-.114 1.024-.343 1.424-.229.4-.539.727-.93.98-.391.253-.84.44-1.346.562-.506.122-1.04.183-1.601.183-.579 0-1.125-.044-1.638-.132a7.662 7.662 0 0 1-1.475-.391v-2.49c.238.151.506.288.805.41.299.122.609.223.93.304.321.081.641.142.959.183.318.041.615.061.892.061.33 0 .619-.028.866-.086.247-.057.454-.137.621-.239.167-.102.291-.223.374-.363.083-.14.124-.295.124-.465 0-.184-.043-.345-.128-.485-.085-.14-.214-.266-.386-.379-.172-.113-.387-.219-.645-.318-.258-.099-.558-.205-.901-.318a6.492 6.492 0 0 1-.959-.379 3.224 3.224 0 0 1-.766-.518 2.202 2.202 0 0 1-.507-.72c-.12-.278-.181-.607-.181-.987 0-.493.104-.923.311-1.289.207-.366.494-.671.862-.914.368-.243.803-.426 1.306-.547.503-.122 1.047-.183 1.635-.183zm-7.07.207h2.927v2.066h-2.927v4.605c0 .28.023.511.07.693.047.182.121.324.221.427.1.103.233.176.397.218.164.042.366.064.604.064.207 0 .415-.014.625-.043.21-.029.415-.071.615-.128v2.066a6.622 6.622 0 0 1-.776.182 8.192 8.192 0 0 1-1.477.118c-.594 0-1.096-.072-1.506-.214a2.644 2.644 0 0 1-1.045-.629c-.279-.277-.479-.62-.6-1.03-.121-.41-.182-.882-.182-1.416v-4.913H4.71V9.957h1.558V7.58l2.024-.664v3.041z" fill="#3178C6"/>
</svg> 